# xmcd
#
# Track frame offsets:
#  150
#  15257
#  27975
#  46467
#  62977
#  75217
#  91480
#  106435
#  120050
#  135782
#  143407
#  153470
#
# Disc length: 2226 seconds
#
# Revision: 0
# Processed by: cddbd v1.5.2PL0 Copyright (c) Steve Scherf et al.
# Submitted via: Collectorz.com_Music_Collector 6.9
#
DISCID=8108b00c
DTITLE=Art - Supernatural Fairy Tales
DYEAR=1967
DGENRE=Psychedelic Rock
TTITLE0=I Think I'm Going Weird
TTITLE1=What's That Sound (For What It's Worth)
TTITLE2=African Thing
TTITLE3=Room With A View
TTITLE4=Flying Anchors
TTITLE5=Supernatural Fairy Tale
TTITLE6=Love is Real
TTITLE7=Come On Up
TTITLE8=Brothers, Dads And Mothers
TTITLE9=Talkin' To Myself
TTITLE10=Alive Not Dead
TTITLE11=Rome Take Away Three
EXTD=
EXTT0=
EXTT1=
EXTT2=
EXTT3=
EXTT4=
EXTT5=
EXTT6=
EXTT7=
EXTT8=
EXTT9=
EXTT10=
EXTT11=
PLAYORDER=
